<svg width="1024" height="1024" viewBox="0 0 1024 1024" xmlns="http://www.w3.org/2000/svg">
  <defs>
    <linearGradient id="bg" x1="0" y1="0" x2="0" y2="1">
      <stop offset="0" stop-color="#150d24"/>
      <stop offset="1" stop-color="#060309"/>
    </linearGradient>
    <linearGradient id="g" gradientUnits="userSpaceOnUse" x1="72" y1="256" x2="440" y2="256">
      <stop offset="0" stop-color="#6d28d9"/>
      <stop offset="0.5" stop-color="#8b5cf6"/>
      <stop offset="1" stop-color="#d946ef"/>
    </linearGradient>
    <mask id="hole" maskUnits="userSpaceOnUse" x="0" y="0" width="512" height="512">
      <rect width="512" height="512" fill="#fff"/>
      <circle cx="256" cy="256" r="48" fill="#000"/>
    </mask>
    <filter id="glow" x="-30%" y="-30%" width="160%" height="160%"><feGaussianBlur stdDeviation="9"/></filter>
    <g id="art">
    <g stroke="url(#g)" fill="none" stroke-linecap="round" stroke-linejoin="round">
      <g stroke-width="9">
        <path d="M429.83 283.54 A176 176 0 0 1 283.54 429.83"/>
        <path d="M228.46 429.83 A176 176 0 0 1 82.17 283.54"/>
        <path d="M82.17 228.46 A176 176 0 0 1 228.46 82.17"/>
        <path d="M283.54 82.17 A176 176 0 0 1 429.83 228.46"/>
      </g>
      <g stroke-width="5">
        <path d="M432 247 L441 256 L432 265 L423 256 Z"/>
        <path d="M256 423 L265 432 L256 441 L247 432 Z"/>
        <path d="M80 247 L89 256 L80 265 L71 256 Z"/>
        <path d="M256 71 L265 80 L256 89 L247 80 Z"/>
      </g>
      <g mask="url(#hole)" stroke-width="6">
        <ellipse cx="256" cy="256" rx="130" ry="46" transform="rotate(-16 256 256)"/>
        <ellipse cx="256" cy="256" rx="130" ry="46" transform="rotate(16 256 256)"/>
      </g>
      <circle cx="256" cy="256" r="56" stroke-width="6"/>
    </g>
    <circle cx="256" cy="256" r="30" fill="url(#g)"/>
    <circle cx="380.97" cy="220.17" r="10" fill="url(#g)"/>
    <circle cx="131.03" cy="291.83" r="10" fill="url(#g)"/></g>
    <clipPath id="tile"><rect width="1024" height="1024" rx="224"/></clipPath>
  </defs>
  <g clip-path="url(#tile)">
    <rect width="1024" height="1024" fill="url(#bg)"/>
  </g>
  <rect x="10" y="10" width="1004" height="1004" rx="216" fill="none" stroke="#8b5cf6" stroke-opacity="0.45" stroke-width="14"/>
  <g transform="translate(112 112) scale(1.5625)">
    <use href="#art" filter="url(#glow)" opacity="0.7"/>
    <use href="#art"/>
  </g>
</svg>
